<svg width="537" height="567" viewBox="0 0 537 567" fill="none" xmlns="http://www.w3.org/2000/svg">
    <path d="M270 100L226.699 25L313.301 25L270 100Z" fill="#D9D9D9" fill-opacity="0.5" />
    <path d="M227 25L270.301 100H183.699L227 25Z" fill="#D9D9D9" fill-opacity="0.5" />
    <path d="M313 25L356.301 100H269.699L313 25Z" fill="#D9D9D9" fill-opacity="0.5" />
    <path d="M270 100L313.301 175H226.699L270 100Z" fill="#D9D9D9" fill-opacity="0.5" />
    <path d="M227 175L183.699 100L270.301 100L227 175Z" fill="#D9D9D9" fill-opacity="0.5" />
    <path d="M313 175L269.699 100L356.301 100L313 175Z" fill="#D9D9D9" fill-opacity="0.5" />
    <path
        d="M279.509 120.182C279.568 120.469 279.564 120.765 279.499 121.05C279.434 121.336 279.309 121.604 279.132 121.838L274.683 127.735C268.754 135.616 257.119 136.957 248.197 131.041L242.078 139.186C241.869 139.466 241.591 139.687 241.271 139.828C240.951 139.969 240.599 140.024 240.252 139.988C239.913 139.952 239.59 139.825 239.318 139.62C239.046 139.415 238.834 139.14 238.706 138.824C238.577 138.499 238.534 138.146 238.581 137.8C238.629 137.453 238.766 137.125 238.978 136.847L245.105 128.714C237.001 121.772 235.105 110.243 241.025 102.379L245.474 96.4816C245.648 96.2472 245.87 96.0526 246.125 95.9106C246.38 95.7686 246.662 95.6825 246.953 95.6581C247.236 95.6353 247.521 95.6768 247.786 95.7795C248.05 95.8822 248.289 96.0434 248.482 96.2511C248.693 96.4816 248.873 96.712 249.074 96.9425C249.186 93.401 250.384 89.9795 252.505 87.1412L256.954 81.2435C257.128 81.009 257.349 80.814 257.603 80.6715C257.858 80.529 258.139 80.4421 258.43 80.4167C258.713 80.394 258.997 80.4355 259.262 80.538C259.527 80.6405 259.765 80.8014 259.959 81.0087C260.15 81.2097 260.305 81.4149 260.486 81.6204C260.632 78.1412 261.826 74.7874 263.913 71.9993L268.362 66.095C268.536 65.8609 268.758 65.6664 269.013 65.5246C269.268 65.3828 269.55 65.2969 269.841 65.2726C270.122 65.2508 270.405 65.2927 270.669 65.3952C270.932 65.4977 271.168 65.6581 271.361 65.8646C273.183 67.809 274.785 69.9488 276.137 72.245C276.468 71.5922 276.853 70.9678 277.287 70.3785C280.849 65.644 295.627 60.6319 297.303 60.0804C297.595 59.9937 297.904 59.9769 298.204 60.0312C298.504 60.0856 298.787 60.2096 299.031 60.3932C299.274 60.5769 299.471 60.8151 299.606 61.0888C299.74 61.3624 299.809 61.6638 299.806 61.9688C299.736 63.7239 298.993 79.3147 295.432 84.0406C294.988 84.6261 294.492 85.171 293.952 85.669C296.532 86.3391 299.03 87.2914 301.402 88.5086C301.652 88.638 301.871 88.8219 302.041 89.0468C302.211 89.2718 302.328 89.532 302.384 89.8084C302.443 90.0943 302.439 90.3892 302.374 90.6736C302.309 90.958 302.184 91.2253 302.008 91.4576L297.564 97.3553C295.463 100.126 292.574 102.198 289.276 103.3C289.527 103.42 289.763 103.518 290.015 103.641C290.266 103.771 290.484 103.955 290.654 104.181C290.825 104.407 290.942 104.668 290.997 104.945C291.055 105.231 291.05 105.526 290.985 105.811C290.919 106.096 290.793 106.363 290.616 106.595L286.172 112.493C284.028 115.314 281.069 117.409 277.695 118.492C277.975 118.628 278.246 118.733 278.527 118.878C278.779 119.008 278.998 119.194 279.168 119.421C279.338 119.648 279.455 119.91 279.51 120.188L279.509 120.182ZM269.578 99.4938C269.402 99.435 269.236 99.3507 269.085 99.2436C268.694 98.9422 268.333 98.6211 267.957 98.3099C267.966 98.995 267.937 99.68 267.872 100.362C267.805 100.956 267.709 101.546 267.586 102.132C268.108 101.862 268.639 101.606 269.216 101.375C269.853 101.122 270.502 100.903 271.162 100.719C270.762 100.453 270.35 100.187 269.953 99.8914C269.809 99.7769 269.682 99.6414 269.578 99.4894L269.578 99.4938ZM279.871 87.043C279.756 86.9622 279.63 86.9021 279.52 86.8245C279.409 86.7469 279.301 86.6542 279.192 86.5734C279.128 86.8748 279.047 87.1653 278.974 87.4667L279.862 87.0495L279.871 87.043ZM258.551 115.03C258.407 114.915 258.28 114.78 258.175 114.628C258 114.57 257.834 114.485 257.684 114.377C257.262 114.056 256.876 113.722 256.482 113.384C256.502 114.723 256.374 116.06 256.101 117.372C257.286 116.748 258.536 116.257 259.829 115.907C259.402 115.626 258.97 115.346 258.55 115.033L258.551 115.03ZM244.115 104.706C239.555 110.755 241.089 119.735 247.415 125.373C250.18 122.668 251.963 119.118 252.482 115.286C252.968 110.589 251.153 105.714 247.079 100.778L244.122 104.701L244.115 104.706ZM255.602 89.4665C251.037 95.5161 252.573 104.5 258.897 110.134C261.661 107.432 263.444 103.885 263.964 100.055C264.455 95.3588 262.635 90.4844 258.562 85.5434L255.602 89.4665ZM269.963 70.4047L267.005 74.3267C262.439 80.3818 263.979 89.3606 270.304 95.0038C273.07 92.2984 274.854 88.7467 275.372 84.9121C275.852 80.2256 274.037 75.3501 269.963 70.4047H269.963ZM295.728 64.8008C289.885 66.9328 282.199 70.3184 280.398 72.7071C279.581 73.7772 279.055 75.0402 278.87 76.3737C278.686 77.7071 278.849 79.0656 279.344 80.3173C279.835 81.5409 280.651 82.607 281.704 83.4008C282.757 84.1945 284.007 84.6858 285.318 84.8215C286.658 84.9532 288.01 84.7361 289.241 84.1912C290.473 83.6464 291.542 82.7924 292.346 81.7121C294.153 79.3192 295.281 70.9967 295.722 64.7964L295.728 64.8008ZM297.433 91.1015C291.544 88.5436 286.347 88.1472 281.958 89.9328C278.43 91.4782 275.52 94.1585 273.691 97.5476C280.859 102.077 289.918 101.079 294.478 95.0246L297.438 91.0927L297.433 91.1015ZM286.036 106.241C280.138 103.678 274.94 103.281 270.551 105.067C267.021 106.615 264.111 109.299 262.283 112.692C269.456 117.217 278.512 116.218 283.076 110.163L286.036 106.231V106.241ZM274.544 121.476C268.654 118.917 263.457 118.516 259.068 120.302C255.537 121.849 252.625 124.533 250.797 127.926C257.97 132.457 267.024 131.458 271.589 125.404L274.548 121.472L274.544 121.476Z"
        fill="white" />
    <path d="M270 278L226.699 203H313.301L270 278Z" fill="#D9D9D9" fill-opacity="0.5" />
    <path d="M227 203L270.301 278H183.699L227 203Z" fill="#D9D9D9" fill-opacity="0.5" />
    <path d="M313 203L356.301 278H269.699L313 203Z" fill="#D9D9D9" fill-opacity="0.5" />
    <path d="M270 278L313.301 353H226.699L270 278Z" fill="#D9D9D9" fill-opacity="0.5" />
    <path d="M227 353L183.699 278H270.301L227 353Z" fill="#D9D9D9" fill-opacity="0.5" />
    <path d="M313 353L269.699 278H356.301L313 353Z" fill="#D9D9D9" fill-opacity="0.5" />
    <path d="M444 377L400.699 302H487.301L444 377Z" fill="#D9D9D9" fill-opacity="0.5" />
    <path d="M401 302L444.301 377H357.699L401 302Z" fill="#D9D9D9" fill-opacity="0.5" />
    <path d="M487 302L530.301 377H443.699L487 302Z" fill="#D9D9D9" fill-opacity="0.5" />
    <path d="M444 377L487.301 452H400.699L444 377Z" fill="#D9D9D9" fill-opacity="0.5" />
    <path d="M401 452L357.699 377H444.301L401 452Z" fill="#D9D9D9" fill-opacity="0.5" />
    <path d="M487 452L443.699 377H530.301L487 452Z" fill="#D9D9D9" fill-opacity="0.5" />
    <path d="M270 466.151L226.699 391.151H313.301L270 466.151Z" fill="#D9D9D9" fill-opacity="0.5" />
    <path d="M227 391.151L270.301 466.151H183.699L227 391.151Z" fill="#D9D9D9" fill-opacity="0.5" />
    <path d="M313 391.151L356.301 466.151H269.699L313 391.151Z" fill="#D9D9D9" fill-opacity="0.5" />
    <path d="M270 466.151L313.301 541.151H226.699L270 466.151Z" fill="#D9D9D9" fill-opacity="0.5" />
    <path d="M227 541.151L183.699 466.151H270.301L227 541.151Z" fill="#D9D9D9" fill-opacity="0.5" />
    <path d="M313 541.151L269.699 466.151H356.301L313 541.151Z" fill="#D9D9D9" fill-opacity="0.5" />
    <path d="M93 378L49.6987 303H136.301L93 378Z" fill="#D9D9D9" fill-opacity="0.5" />
    <path d="M50 303L93.3013 378H6.69873L50 303Z" fill="#D9D9D9" fill-opacity="0.5" />
    <path d="M136 303L179.301 378H92.6987L136 303Z" fill="#D9D9D9" fill-opacity="0.5" />
    <path d="M93 378L136.301 453H49.6987L93 378Z" fill="#D9D9D9" fill-opacity="0.5" />
    <path d="M50 453L6.69873 378H93.3013L50 453Z" fill="#D9D9D9" fill-opacity="0.5" />
    <path d="M136 453L92.6987 378H179.301L136 453Z" fill="#D9D9D9" fill-opacity="0.5" />
    <path d="M444 178L400.699 103L487.301 103L444 178Z" fill="#D9D9D9" fill-opacity="0.5" />
    <path d="M401 103L444.301 178H357.699L401 103Z" fill="#D9D9D9" fill-opacity="0.5" />
    <path d="M487 103L530.301 178H443.699L487 103Z" fill="#D9D9D9" fill-opacity="0.5" />
    <path d="M444 178L487.301 253H400.699L444 178Z" fill="#D9D9D9" fill-opacity="0.5" />
    <path d="M401 253L357.699 178H444.301L401 253Z" fill="#D9D9D9" fill-opacity="0.5" />
    <path d="M487 253L443.699 178H530.301L487 253Z" fill="#D9D9D9" fill-opacity="0.5" />
    <path d="M93 175L49.6987 100L136.301 100L93 175Z" fill="#D9D9D9" fill-opacity="0.5" />
    <path d="M50 100L93.3013 175H6.69873L50 100Z" fill="#D9D9D9" fill-opacity="0.5" />
    <path d="M136 100L179.301 175H92.6987L136 100Z" fill="#D9D9D9" fill-opacity="0.5" />
    <path d="M93 175L136.301 250H49.6987L93 175Z" fill="#D9D9D9" fill-opacity="0.5" />
    <path d="M50 250L6.69873 175H93.3013L50 250Z" fill="#D9D9D9" fill-opacity="0.5" />
    <path d="M136 250L92.6987 175H179.301L136 250Z" fill="#D9D9D9" fill-opacity="0.5" />
    <path
        d="M443.945 358.609C433.781 358.609 425.516 366.875 425.516 377.039C425.516 387.203 433.781 395.469 443.945 395.469C454.109 395.469 462.375 387.203 462.375 377.039C462.375 366.875 454.109 358.609 443.945 358.609ZM443.945 391.281C436.094 391.281 429.703 384.891 429.703 377.039C429.703 369.187 436.094 362.797 443.945 362.797C451.797 362.797 458.188 369.187 458.188 377.039C458.188 384.891 451.805 391.281 443.945 391.281ZM443.945 353.953C445.102 353.953 446.039 353.016 446.039 351.859V344.203C446.039 343.047 445.102 342.109 443.945 342.109C442.789 342.109 441.852 343.047 441.852 344.203V351.859C441.859 353.016 442.789 353.953 443.945 353.953ZM424.664 360.719C425.07 361.125 425.609 361.328 426.141 361.328C426.68 361.328 427.211 361.125 427.617 360.719C428.438 359.898 428.438 358.578 427.617 357.758L422.203 352.344C422.009 352.149 421.778 351.994 421.524 351.888C421.27 351.783 420.998 351.729 420.723 351.729C420.448 351.729 420.175 351.783 419.921 351.888C419.667 351.994 419.436 352.149 419.242 352.344C419.047 352.538 418.892 352.769 418.787 353.023C418.681 353.277 418.627 353.549 418.627 353.824C418.627 354.099 418.681 354.372 418.787 354.626C418.892 354.88 419.047 355.111 419.242 355.305L424.664 360.719ZM420.867 377.039C420.867 375.883 419.93 374.945 418.773 374.945H411.117C409.961 374.945 409.023 375.883 409.023 377.039C409.023 378.195 409.961 379.133 411.117 379.133H418.773C419.93 379.133 420.867 378.195 420.867 377.039ZM424.664 393.359L419.25 398.773C419.055 398.968 418.9 399.198 418.795 399.452C418.689 399.706 418.635 399.979 418.635 400.254C418.635 400.529 418.689 400.801 418.795 401.056C418.9 401.31 419.055 401.54 419.25 401.734C419.656 402.141 420.195 402.344 420.727 402.344C421.266 402.344 421.797 402.141 422.203 401.734L427.617 396.32C428.438 395.5 428.438 394.18 427.617 393.359C426.805 392.547 425.484 392.547 424.664 393.359ZM443.945 400.125C442.789 400.125 441.852 401.062 441.852 402.219V409.875C441.852 411.031 442.789 411.969 443.945 411.969C445.102 411.969 446.039 411.031 446.039 409.875V402.219C446.039 401.062 445.102 400.125 443.945 400.125ZM463.227 393.359C463.032 393.164 462.802 393.01 462.548 392.904C462.294 392.798 462.021 392.744 461.746 392.744C461.471 392.744 461.199 392.798 460.945 392.904C460.69 393.01 460.46 393.164 460.266 393.359C460.071 393.553 459.916 393.784 459.81 394.038C459.705 394.292 459.65 394.565 459.65 394.84C459.65 395.115 459.705 395.387 459.81 395.641C459.916 395.896 460.071 396.126 460.266 396.32L465.68 401.734C466.086 402.141 466.625 402.344 467.156 402.344C467.695 402.344 468.227 402.141 468.633 401.734C469.453 400.914 469.453 399.594 468.633 398.773L463.227 393.359ZM476.781 374.945H469.125C467.969 374.945 467.031 375.883 467.031 377.039C467.031 378.195 467.969 379.133 469.125 379.133H476.781C477.938 379.133 478.875 378.195 478.875 377.039C478.875 375.883 477.938 374.945 476.781 374.945ZM461.75 361.328C462.289 361.328 462.82 361.125 463.227 360.719L468.641 355.305C469.461 354.484 469.461 353.164 468.641 352.344C468.447 352.149 468.216 351.994 467.962 351.888C467.708 351.783 467.435 351.729 467.16 351.729C466.885 351.729 466.613 351.783 466.359 351.888C466.105 351.994 465.874 352.149 465.68 352.344L460.266 357.758C460.071 357.952 459.916 358.183 459.81 358.437C459.705 358.691 459.65 358.963 459.65 359.238C459.65 359.513 459.705 359.786 459.81 360.04C459.916 360.294 460.071 360.525 460.266 360.719C460.68 361.125 461.211 361.328 461.75 361.328Z"
        fill="white" />
    <path
        d="M265.256 499.905C256.849 499.905 250.009 493.066 250.009 484.658C250.009 481.934 250.736 479.26 252.113 476.925C253.23 475.031 254.747 473.398 256.544 472.145V440.809C256.544 436.004 260.453 432.095 265.257 432.095C270.062 432.095 273.969 436.003 273.969 440.808V472.144C275.766 473.398 277.283 475.031 278.399 476.925C279.776 479.26 280.503 481.934 280.503 484.658C280.504 493.065 273.664 499.905 265.256 499.905ZM265.256 436.452C262.854 436.452 260.9 438.406 260.9 440.808V474.593L259.813 475.222C256.453 477.166 254.365 480.781 254.365 484.657C254.365 490.662 259.251 495.548 265.256 495.548C271.262 495.548 276.148 490.662 276.148 484.657C276.148 480.781 274.06 477.166 270.7 475.222L269.613 474.593V440.808C269.613 438.405 267.659 436.452 265.256 436.452Z"
        fill="white" />
    <path
        d="M259.088 484.657C259.088 486.293 259.738 487.862 260.895 489.018C262.052 490.175 263.62 490.825 265.256 490.825C266.892 490.825 268.461 490.175 269.618 489.018C270.774 487.862 271.424 486.293 271.424 484.657C271.424 483.021 270.774 481.452 269.618 480.296C268.461 479.139 266.892 478.489 265.256 478.489C263.62 478.489 262.052 479.139 260.895 480.296C259.738 481.452 259.088 483.021 259.088 484.657Z"
        fill="white" />
    <path
        d="M265.256 493.003C260.654 493.003 256.91 489.259 256.91 484.657C256.91 480.055 260.654 476.311 265.256 476.311C269.859 476.311 273.602 480.055 273.602 484.657C273.602 489.259 269.858 493.003 265.256 493.003ZM265.256 480.668C263.056 480.668 261.266 482.458 261.266 484.658C261.266 486.858 263.056 488.648 265.256 488.648C267.456 488.648 269.246 486.858 269.246 484.658C269.245 482.458 267.455 480.668 265.256 480.668Z"
        fill="white" />
    <path
        d="M265.256 486.836C264.053 486.836 263.078 485.861 263.078 484.658V452.795C263.078 451.592 264.053 450.617 265.256 450.617C266.459 450.617 267.434 451.592 267.434 452.795V484.657C267.434 485.86 266.459 486.836 265.256 486.836ZM285.813 449.447H278.189C276.998 449.447 276.031 448.48 276.031 447.289C276.031 446.098 276.998 445.131 278.189 445.131H285.813C287.005 445.131 287.971 446.098 287.971 447.289C287.971 448.48 287.005 449.447 285.813 449.447ZM285.813 455.684H278.189C276.998 455.684 276.031 454.718 276.031 453.527C276.031 452.335 276.998 451.369 278.189 451.369H285.813C287.005 451.369 287.971 452.335 287.971 453.527C287.971 454.718 287.005 455.684 285.813 455.684ZM285.813 461.921H278.189C276.998 461.921 276.031 460.955 276.031 459.763C276.031 458.572 276.998 457.605 278.189 457.605H285.813C287.005 457.605 287.971 458.572 287.971 459.763C287.971 460.955 287.005 461.921 285.813 461.921ZM285.813 468.158H278.189C276.998 468.158 276.031 467.191 276.031 466C276.031 464.809 276.998 463.842 278.189 463.842H285.813C287.005 463.842 287.971 464.809 287.971 466C287.971 467.191 287.005 468.158 285.813 468.158Z"
        fill="white" />
    <path
        d="M131.574 401.832L129.2 401.1L128.106 401.503C128.091 401.494 128.081 401.48 128.065 401.472C127.881 401.364 127.681 401.306 127.473 401.275C127.408 401.266 127.365 401.239 127.328 401.184C126.954 400.625 126.853 400.02 127.006 399.367C127.082 399.048 127.226 398.757 127.367 398.464C127.575 398.034 127.735 397.59 127.71 397.101C127.697 396.855 127.621 396.631 127.467 396.437C127.358 396.299 127.178 396.167 127.074 396.148C127.475 396.433 127.593 396.871 127.516 397.324C127.451 397.705 127.287 398.046 127.091 398.374C127.087 398.382 127.079 398.386 127.067 398.397C127.161 397.846 126.969 397.467 126.673 397.177C126.481 396.988 126.258 396.837 126.011 396.733C125.776 396.633 125.531 396.556 125.291 396.468C125.291 396.551 125.291 396.634 125.291 396.716C125.308 396.862 125.32 397.007 125.342 397.151C125.4 397.558 125.499 397.952 125.746 398.292C125.998 398.637 126.337 398.812 126.769 398.791C126.783 398.791 126.796 398.791 126.824 398.791C126.383 399.514 126.214 400.253 126.515 401.014L125.9 400.4L124.2 401.7L123.741 401.486C123.734 401.482 123.73 401.476 123.723 401.472C123.646 401.426 123.564 401.394 123.481 401.364L122.943 401.113C122.607 400.574 122.518 399.992 122.664 399.367C122.74 399.048 122.884 398.757 123.025 398.464C123.233 398.034 123.393 397.59 123.368 397.101C123.355 396.855 123.279 396.631 123.125 396.437C123.016 396.299 122.836 396.167 122.732 396.148C123.133 396.433 123.251 396.871 123.174 397.324C123.109 397.705 122.945 398.046 122.749 398.374C122.745 398.382 122.737 398.386 122.725 398.397C122.819 397.846 122.627 397.467 122.331 397.177C122.139 396.988 121.916 396.837 121.669 396.733C121.434 396.633 121.189 396.556 120.949 396.468C120.949 396.551 120.949 396.634 120.949 396.716C120.966 396.862 120.978 397.007 121 397.151C121.058 397.558 121.157 397.952 121.404 398.292C121.463 398.372 121.527 398.441 121.596 398.503C121.241 398.451 120.886 398.448 120.532 398.507C120.212 398.561 119.911 398.666 119.663 398.884C119.359 399.148 119.236 399.495 119.211 399.888C119.206 399.966 119.231 400.003 119.293 400.037C119.706 400.26 120.113 400.24 120.511 400.003C120.792 399.836 121.014 399.604 121.188 399.331C121.352 399.076 121.493 398.805 121.643 398.54C121.859 398.716 122.119 398.805 122.427 398.791C122.441 398.79 122.454 398.791 122.482 398.791C121.997 399.586 121.834 400.402 122.273 401.244C122.075 401.316 121.878 401.377 121.691 401.46C121.551 401.523 121.436 401.626 121.397 401.788C121.405 401.788 121.413 401.788 121.421 401.788L121.4 401.8L119.5 401.2L119.403 401.24C119.383 401.226 119.364 401.209 119.347 401.184C118.973 400.625 118.873 400.02 119.025 399.367C119.101 399.048 119.245 398.757 119.387 398.464C119.595 398.034 119.754 397.59 119.729 397.101C119.727 397.067 119.721 397.035 119.717 397.002C120.865 395.932 122.029 394.778 122.8 393.9C123.475 393.131 122.082 393.067 122.2 392.6C122.206 392.576 121.497 394.226 119.4 393.2C114.743 390.923 99.6997 381.1 99.6997 381.1L97.7209 378.487C97.2625 377.75 96.7085 377.064 96.1421 376.404C94.9345 374.996 94.0797 373.422 93.7773 371.583C93.6397 370.746 93.5881 369.896 93.5045 369.051C93.3161 367.145 92.7745 365.391 91.3609 364.006C91.3477 363.993 91.3533 363.961 91.3529 363.956C91.9169 363.878 92.4941 363.854 93.0417 363.714C95.5865 363.065 97.3029 360.825 97.4717 358.241C97.5533 358.291 97.6377 358.342 97.7161 358.39C98.6717 358.969 99.5529 359.101 100.333 358.983L101.121 359.461C101.127 359.459 101.131 359.456 101.136 359.455L101.218 359.768L102 359.592C102.571 359.008 102.89 358.483 102.89 358.483L101.319 357.53L101.231 357.199L100.898 357.274L98.8153 356.011L98.7285 355.681L98.3961 355.756L97.0093 354.915L97.1437 349.784L95.9357 349.051L91.4469 351.54L91.3113 351.458L91.2249 351.128L90.8925 351.204L88.8117 349.941L88.7253 349.612L88.3929 349.687L86.5809 348.587C86.5809 348.587 86.2625 349.114 86.0081 349.891L86.2101 350.66L86.7601 350.536C86.7653 350.61 86.7685 350.683 86.7777 350.757L86.9205 350.844C87.1565 351.534 87.6281 352.201 88.4517 352.756C86.6773 353.997 85.5653 356.242 85.8525 358.47C85.9993 359.609 86.3865 360.642 87.1085 361.64C84.1493 360.857 81.3189 361.139 78.5005 361.879C75.7669 362.597 73.3229 363.879 71.1421 365.663C70.8045 365.94 70.5041 366.288 70.2657 366.654C69.8449 367.301 69.9485 367.936 70.5241 368.447C70.7749 368.67 71.0613 368.87 71.3629 369.015C72.3749 369.499 73.4057 369.944 74.4197 370.424C74.8781 370.642 75.3313 370.881 75.7497 371.165C75.9345 371.29 76.1429 371.553 76.1405 371.75C76.1313 372.412 76.0581 373.075 75.9609 373.73C75.7721 375 75.1165 376.076 74.4913 377.164C72.6353 380.392 70.8981 383.679 69.6161 387.187C68.5641 390.065 67.7901 393.014 67.3873 396.054C67.2441 397.135 68.0517 398.14 69.1317 398.284C70.3977 398.451 71.4829 398.075 72.2449 397.045C72.6409 396.509 72.9349 395.878 73.1781 395.253C74.6177 391.554 76.3817 388.022 78.5953 384.725C79.0873 383.992 79.6841 383.321 80.2889 382.674C80.7545 382.177 81.2801 382.195 81.7749 382.667C82.0749 382.952 82.3137 383.302 82.5805 383.622C82.8433 383.938 82.9241 384.295 82.9225 384.708C82.9077 388.616 82.9117 392.523 82.9053 396.43C82.9033 397.562 83.4185 398.273 84.5369 398.336C85.6897 398.4 86.8549 398.297 88.0113 398.216C88.4185 398.188 88.8301 398.045 89.2129 397.889C90.1369 397.513 90.6797 396.817 90.7657 395.811C90.8337 395.018 90.9193 394.22 90.9073 393.426C90.8517 389.728 90.7669 386.031 90.6845 382.334C90.6809 382.172 90.6241 382.001 90.5537 381.852C90.0185 380.72 89.4733 379.592 88.9325 378.461C88.8885 378.37 88.8549 378.272 88.7953 378.126C88.8973 378.18 88.9337 378.196 88.9661 378.217C92.3857 380.482 117.577 395.34 118 396C118.049 396.077 117.958 396.318 117.795 396.643C117.634 396.584 117.471 396.527 117.309 396.468C117.309 396.551 117.309 396.634 117.309 396.716C117.327 396.862 117.339 397.007 117.361 397.151C117.371 397.224 117.385 397.296 117.399 397.368C116.799 398.413 115.98 399.709 116 400C116.013 400.18 116.87 399.528 118.007 398.543C118.223 398.717 118.481 398.805 118.788 398.791C118.801 398.79 118.815 398.791 118.843 398.791C118.358 399.586 118.195 400.402 118.634 401.244C118.436 401.316 118.239 401.377 118.051 401.46C117.989 401.488 117.934 401.525 117.886 401.57L116.7 401.2L115.6 401.8L114.1 401L114.059 401.011C113.847 400.611 113.79 400.184 113.897 399.727C113.958 399.469 114.074 399.234 114.189 398.998C114.357 398.651 114.486 398.292 114.465 397.897C114.455 397.699 114.394 397.518 114.269 397.361C114.181 397.25 114.037 397.144 113.952 397.128C114.276 397.358 114.371 397.712 114.309 398.078C114.257 398.386 114.125 398.66 113.967 398.925C113.963 398.932 113.956 398.935 113.946 398.944C114.022 398.499 113.867 398.193 113.628 397.959C113.473 397.806 113.293 397.684 113.093 397.6C112.904 397.52 112.707 397.457 112.513 397.387C112.513 397.454 112.513 397.52 112.513 397.587C112.526 397.704 112.537 397.822 112.554 397.938C112.601 398.266 112.681 398.585 112.88 398.859C113.083 399.137 113.357 399.278 113.706 399.262C113.716 399.262 113.727 399.262 113.75 399.262C113.376 399.874 113.244 400.502 113.54 401.148L112.2 401.5L112.1 400.9H110.1L110.006 400.943C109.991 400.929 109.975 400.918 109.962 400.898C109.549 400.28 109.437 399.61 109.607 398.889C109.69 398.535 109.849 398.214 110.006 397.89C110.236 397.414 110.413 396.922 110.385 396.381C110.371 396.109 110.287 395.861 110.116 395.646C109.995 395.493 109.797 395.348 109.681 395.326C110.125 395.642 110.256 396.126 110.171 396.628C110.099 397.05 109.917 397.427 109.7 397.79C109.695 397.798 109.686 397.803 109.673 397.815C109.777 397.206 109.564 396.786 109.237 396.465C109.023 396.256 108.777 396.089 108.503 395.973C108.244 395.863 107.973 395.777 107.707 395.681C107.707 395.772 107.707 395.864 107.707 395.956C107.726 396.116 107.74 396.277 107.764 396.436C107.829 396.886 107.938 397.323 108.211 397.698C108.49 398.08 108.865 398.274 109.343 398.251C109.358 398.25 109.373 398.251 109.404 398.251C108.867 399.132 108.686 400.034 109.172 400.966C108.953 401.046 108.735 401.113 108.528 401.205C108.517 401.21 108.507 401.217 108.497 401.222L107.3 400.8L105.555 401.154C105.261 401.206 104.957 401.212 104.657 401.203C102.528 401.145 100.399 401.074 98.2693 401.015C94.0889 400.9 89.9081 400.787 85.7273 400.676C79.7697 400.519 73.8121 400.364 67.8545 400.215C67.7097 400.212 67.5157 400.243 67.4253 400.336C67.0549 400.718 66.6449 401.088 66.3789 401.538C65.6849 402.715 66.6161 404.239 67.9889 404.239C88.7713 404.239 109.554 404.239 130.336 404.239C130.975 404.239 131.478 403.896 131.725 403.294C131.767 403.188 131.813 403.084 131.857 402.978C131.857 402.795 131.857 402.612 131.857 402.429L131.574 401.832ZM79.0153 368.957C78.0593 368.293 77.1177 367.64 76.0997 366.933C77.7489 366.59 79.2961 366.267 80.9577 365.921C80.2753 366.988 79.6593 367.95 79.0153 368.957ZM88.8669 374.098C88.8121 374.059 88.7717 373.938 88.7873 373.87C89.0721 372.641 89.3665 371.414 89.6589 370.187C90.0165 372.167 90.3077 374.13 91.4173 375.873C90.5661 375.283 89.7133 374.695 88.8669 374.098ZM119.555 397.153C119.552 397.21 119.546 397.267 119.536 397.324C119.471 397.706 119.307 398.046 119.111 398.374C119.107 398.382 119.098 398.386 119.086 398.397C119.137 398.102 119.103 397.856 119.017 397.647C119.194 397.486 119.374 397.321 119.555 397.153ZM127.288 401.788C127.303 401.788 127.318 401.788 127.333 401.788L127.3 401.8L127.288 401.788Z"
        fill="white" />
    <path
        d="M109.901 399.629C110.358 399.876 110.808 399.854 111.249 399.592C111.559 399.407 111.805 399.15 111.998 398.849C112.183 398.56 112.342 398.254 112.512 397.955C112.512 397.948 112.512 397.942 112.512 397.936C112.494 397.935 112.475 397.936 112.457 397.933C112.062 397.874 111.666 397.871 111.271 397.937C110.917 397.996 110.585 398.113 110.31 398.353C109.974 398.646 109.837 399.03 109.809 399.465C109.804 399.55 109.832 399.592 109.901 399.629Z"
        fill="white" />
    <path
        d="M114.112 400.267C114.446 400.447 114.774 400.432 115.096 400.24C115.322 400.105 115.502 399.918 115.642 399.698C115.777 399.488 115.893 399.264 116.017 399.046C116.017 399.041 116.017 399.037 116.017 399.032C116.004 399.032 115.99 399.032 115.977 399.03C115.688 398.988 115.4 398.985 115.112 399.033C114.853 399.076 114.611 399.162 114.411 399.337C114.165 399.55 114.066 399.831 114.045 400.148C114.042 400.21 114.062 400.24 114.112 400.267Z"
        fill="white" />
    <path
        d="M122.848 399.888C122.843 399.966 122.868 400.003 122.93 400.037C123.343 400.26 123.75 400.24 124.149 400.003C124.429 399.836 124.651 399.604 124.825 399.331C124.993 399.07 125.136 398.793 125.29 398.523C125.29 398.517 125.29 398.512 125.29 398.506C125.273 398.506 125.257 398.506 125.24 398.503C124.883 398.45 124.525 398.447 124.169 398.507C123.849 398.561 123.548 398.666 123.3 398.883C122.996 399.148 122.873 399.495 122.848 399.888Z"
        fill="white" />
    <path
        d="M127.19 399.888C127.185 399.966 127.21 400.003 127.272 400.037C127.686 400.26 128.092 400.24 128.491 400.003C128.772 399.836 128.994 399.604 129.167 399.331C129.335 399.07 129.478 398.793 129.632 398.523C129.632 398.517 129.632 398.512 129.632 398.506C129.616 398.506 129.599 398.506 129.582 398.503C129.225 398.45 128.868 398.447 128.511 398.507C128.191 398.561 127.89 398.666 127.642 398.883C127.338 399.148 127.215 399.495 127.19 399.888Z"
        fill="white" />
    <path
        d="M93.0001 140.667C95.5668 140.667 118.86 160.42 118.86 181.473C118.86 188.332 116.136 194.909 111.286 199.759C106.436 204.609 99.8586 207.333 93.0001 207.333C86.1416 207.333 79.564 204.609 74.7144 199.759C69.8647 194.909 67.1401 188.332 67.1401 181.473C67.1401 160.657 90.4301 140.667 93.0001 140.667ZM93.0168 148.5L92.7401 148.73L92.2335 149.16C89.3516 151.69 86.694 154.465 84.2901 157.453C77.7335 165.567 73.8068 174.043 73.8068 181.473C73.8068 186.564 75.829 191.446 79.4284 195.045C83.0278 198.645 87.9097 200.667 93.0001 200.667C98.0905 200.667 102.972 198.645 106.572 195.045C110.171 191.446 112.193 186.564 112.193 181.473C112.193 173.94 108.273 165.453 101.717 157.373C99.179 154.234 96.3559 151.336 93.2835 148.717L93.0168 148.5ZM93.0001 183.097C97.8601 191.157 106.323 188.223 108.263 182.07C108.266 184.075 107.873 186.061 107.106 187.913C106.339 189.765 105.213 191.448 103.793 192.863C102.378 194.283 100.695 195.409 98.843 196.176C96.9907 196.943 95.005 197.336 93.0001 197.333C90.9953 197.336 89.0096 196.943 87.1573 196.176C85.305 195.409 83.6226 194.283 82.2068 192.863C80.7879 191.447 79.6628 189.765 78.8963 187.912C78.1297 186.06 77.7368 184.075 77.7401 182.07C80.2735 176.13 88.1401 175.037 93.0001 183.097Z"
        fill="white" />
    <path
        d="M457.054 180.673C458.526 180.98 459.968 181.379 461.378 181.931C463.219 181.103 465.795 179.692 467.696 178.925C465.764 177.668 456.87 172.087 456.134 171.167C455.91 170.854 455.789 170.478 455.789 170.093C455.789 169.708 455.91 169.333 456.134 169.02C456.533 168.499 460.06 166.168 462.268 165.34C465.764 165.278 466.745 163.408 465.641 161.353C464.783 160.74 463.372 160.433 461.409 160.096C460.52 160.648 459.753 161.384 459.201 162.273C456.38 163.653 451.872 163.806 451.228 163.806C450.369 163.837 449.418 163.162 447.241 162.886V163.193C449.357 163.53 450.921 164.42 450.921 165.646C450.921 167.18 448.59 168.407 445.707 168.407C442.825 168.407 440.494 167.18 440.494 165.646C440.494 164.42 442.058 163.53 444.174 163.193V162.886C442.15 163.193 441.353 163.745 439.574 163.5C437.397 163.193 432.735 162.334 430.987 161.66C430.895 160.586 430.282 159.636 429.331 159.176C428.626 159.421 425.743 160.556 424.884 160.924C424.639 161.598 424.67 162.457 425.16 163.5C425.866 164.972 427.89 164.818 428.84 164.726C429.883 165.309 435.955 168.989 435.587 170.553C435.158 172.485 427.614 176.717 423.934 178.22C428.81 179.753 431.263 181.563 431.508 181.44C432.704 180.888 434.084 180.919 435.281 180.98C438.838 181.164 440.709 181.593 444.787 181.593C449.51 181.593 453.712 180.06 457.054 180.673ZM455.552 165.646C452.638 170.124 455.766 173.589 457.361 174.54C450.89 170.799 454.754 166.628 455.552 165.646ZM436.538 165.646C438.255 167.854 441.537 172.025 433.44 176.687C437.489 173.743 439.697 171.167 436.538 165.646ZM429.76 180.06C440.923 171.504 451.718 170.492 462.574 180.367C461.47 179.539 448.13 167.057 429.76 180.06Z"
        fill="white" />
    <path
        d="M443.868 164.113C442.948 164.45 442.334 165.002 442.334 165.646C442.334 166.658 443.837 167.486 445.708 167.486C447.578 167.486 449.081 166.658 449.081 165.646C449.081 165.002 448.468 164.42 447.548 164.113C447.088 164.972 446.382 165.033 445.708 165.033C445.033 165.033 444.634 165.002 443.868 164.113ZM467.481 185.58C468.616 188.064 474.198 188.708 475.762 185.274C476.528 183.464 476.16 181.379 474.75 179.999C473.584 180.152 467.481 184.323 467.481 185.58ZM463.341 156.753C462.605 156.753 462.268 157.428 462.268 158.286C463.004 158.317 463.709 158.44 464.415 158.593C464.415 157.734 464.047 156.753 463.341 156.753ZM471.162 178.527C472.266 178.281 472.94 178.159 473.922 177.913C473.83 177.177 473.492 176.073 472.695 176.073C471.867 176.073 471.162 177.484 471.162 178.527ZM418.107 178.097C418.812 178.128 419.763 178.343 420.867 178.22C420.867 177.177 420.162 175.46 419.334 175.46C418.536 175.46 418.107 177.055 418.107 178.097ZM428.534 157.366C428.534 156.477 427.982 155.833 427.338 155.833C426.724 155.833 426.387 156.784 426.387 157.673C426.939 157.704 427.675 157.458 428.534 157.366Z"
        fill="white" />
    <path
        d="M444.788 161.598V164.42H446.628V161.598C448.376 161.384 449.695 160.617 449.695 159.666C449.695 158.562 447.916 157.673 445.708 157.673C443.5 157.673 441.721 158.562 441.721 159.666C441.721 160.617 443.04 161.384 444.788 161.598ZM453.16 155.68C454.172 156.538 460.888 159.206 462.023 159.605C463.035 159.973 463.464 159.666 464.783 160.218C466.102 160.77 467.144 161.844 469.659 162.948C472.941 164.358 475.149 163.868 475.149 162.948C475.149 162.028 466.623 159.36 465.672 159.329C464.722 159.298 462.82 159.176 462.299 159.022C461.778 158.869 456.84 156.876 454.969 155.71C453.099 154.514 452.179 154.821 453.16 155.68H453.16ZM481.987 171.78C480.607 171.78 478.767 173.283 477.387 174.847C476.341 176.047 475.214 177.174 474.014 178.22C473.646 178.557 473.707 178.68 471.254 178.833C468.8 178.987 464.446 181.133 461.134 183.127C457.821 185.12 458.803 187.482 459.907 187.727C461.011 187.972 463.832 187.236 465.734 185.887C467.635 184.538 469.874 181.931 471.561 180.98C473.217 180.029 473.615 180.121 474.321 179.447C475.026 178.772 481.098 175.736 482.601 174.264C484.103 172.761 483.368 171.78 481.987 171.78ZM421.511 162.334C423.75 160.862 426.111 159.636 428.595 158.685C429.638 158.286 433.656 156.906 434.76 156.262C435.864 155.618 436.477 155.373 437.213 154.453C437.949 153.533 436.17 154.238 435.066 155.066C433.962 155.894 429.761 157.458 428.595 158.102C428.534 158.133 427.43 158.593 426.755 158.409C425.559 158.102 415.439 161.261 415.654 162.672C415.746 163.224 418.445 164.389 421.511 162.334H421.511ZM421.297 180.49C422.799 180.919 427.706 185.642 431.754 186.316C435.772 186.991 438.286 185.856 433.901 183.25C429.515 180.643 422.431 177.975 420.683 178.343C419.487 179.017 419.027 179.048 417.923 178.343C416.298 177.3 413.354 174.632 411.483 173.436C410.134 172.547 408.692 171.841 407.19 171.289C406.024 170.891 404.062 171.688 407.496 173.743C410.839 175.767 417.463 178.956 417.954 179.263C419.426 180.275 420.162 180.152 421.297 180.489L421.297 180.49Z"
        fill="white" />
    <path
        d="M459.631 191.744C459.355 190.456 458.189 184.906 458.067 184.415C458.496 183.863 458.987 181.563 457.116 181.072C456.533 180.919 455.491 180.857 454.939 181.992C454.601 182.698 454.908 184.415 456.196 184.446C456.564 185.458 456.871 186.47 457.116 187.482C455.767 186.286 453.651 184.17 454.325 181.379C453.344 181.501 452.301 181.624 451.197 181.685C452.025 183.219 456.196 190.487 456.809 191.744C455.859 194.566 457.3 195.148 458.067 195.087C458.68 195.179 458.036 196.007 459.324 196.007C460.397 196.007 460.643 194.811 460.582 194.167C461.072 193.155 460.275 191.836 459.631 191.744ZM434.974 181.9C434.668 181.839 433.042 181.685 432.214 181.593C432.183 181.685 432.183 181.808 432.153 181.992C432.736 182.146 433.625 182.698 434.76 183.158C434.821 182.636 434.913 182.207 434.974 181.9V181.9ZM436.201 181.9C436.017 182.391 435.741 183.066 435.404 183.771C437.826 186.04 435.434 186.715 434.974 186.807C434.238 186.807 432.368 186.807 431.631 186.746C431.478 188.524 431.325 190.272 431.263 191.039C429.699 191.376 429.239 193.646 430.343 194.382C430.803 196.651 432.766 195.424 433.104 194.688C434.146 194.351 434.085 192.94 433.717 192.235C433.778 191.56 438.562 182.851 438.93 182.176C438.194 182.115 436.814 181.961 436.201 181.9ZM417.279 179.447C416.85 179.416 416.666 180.091 416.39 180.52C414.734 183.158 415.623 187.42 420.929 187.083C423.689 186.899 424.486 185.488 425.467 183.955C424.271 183.526 422.769 181.778 421.235 181.44C417.984 180.796 417.494 179.447 417.279 179.447Z"
        fill="white" />
    <g clip-path="url(#clip0_0_1)">
        <path
            d="M285.28 270.584L290.598 270.767L302.481 270.826C303.85 270.836 304.799 271.471 305.327 272.733C305.879 274.063 306.033 275.679 305.789 277.581C302.518 277.132 299.21 277.019 295.916 277.244L269.172 277.031C269.237 275.37 269.041 273.71 268.592 272.109C269.233 271.346 269.414 270.496 269.135 269.557L269.274 249.986C269.274 249.885 269.234 249.788 269.163 249.717C269.091 249.645 268.994 249.605 268.893 249.605L258.323 249.554H256.672L244.386 249.37C240.52 246.663 243.036 244.155 246.433 244.177C253.797 244.221 261.154 244.228 268.504 244.199C271.856 244.184 274.702 246.568 271.115 249.348C271.024 249.415 270.949 249.502 270.897 249.603C270.845 249.703 270.817 249.814 270.815 249.928L270.903 270.312C270.903 270.519 271.067 270.689 271.277 270.701C275.962 270.921 280.629 270.882 285.28 270.584Z"
            fill="#73A837" />
        <path
            d="M244.386 249.37L256.672 249.554L256.856 273.334C251.839 271.696 246.658 271.52 241.312 272.806C241.655 264.884 242.679 257.072 244.386 249.37Z"
            fill="#E2F0FA" />
        <path
            d="M256.672 249.554H258.323C258.499 252.238 258.558 254.923 258.499 257.608C258.381 262.852 258.726 268.339 258.323 273.701L256.856 273.334L256.672 249.554Z"
            fill="#476076" />
        <path
            d="M258.323 249.554L268.893 249.605C268.994 249.605 269.091 249.645 269.162 249.717C269.234 249.788 269.274 249.885 269.274 249.986L269.135 269.557L265.042 264.517C264.909 264.355 264.902 264.105 265.027 263.894C265.335 263.373 267.8 260.417 265.812 260.483C265.596 260.487 265.37 260.602 265.189 260.798C263.46 262.679 261.943 264.743 260.663 266.953C260.638 266.994 260.623 267.04 260.618 267.087C260.612 267.135 260.617 267.183 260.632 267.228C260.646 267.273 260.67 267.313 260.702 267.346C260.734 267.38 260.773 267.406 260.817 267.422C261.976 267.872 262.753 267.462 263.149 266.19C263.325 265.618 263.599 265.574 263.971 266.058L268.592 272.109C269.042 273.719 269.235 275.359 269.172 277.031C269.223 278.33 269.465 281.337 267.859 281.278C265.021 278.35 261.816 275.803 258.323 273.701C258.726 268.339 258.381 262.852 258.499 257.608C258.557 254.923 258.499 252.238 258.323 249.554Z"
            fill="#E2F0FA" />
        <path
            d="M290.598 270.767L285.28 270.584L285.287 256.705C285.287 256.469 285.371 256.243 285.522 256.067C286.739 254.662 288.149 253.437 289.71 252.429C289.802 252.368 289.909 252.334 290.02 252.331C290.13 252.329 290.239 252.358 290.334 252.414C291.37 253.05 292.248 253.903 292.967 254.974C293.251 255.401 293.172 256.004 292.776 256.434L290.598 258.796C290.461 258.946 290.387 259.188 290.392 259.463L290.598 270.767ZM269.135 269.557C269.414 270.496 269.232 271.346 268.592 272.109L263.971 266.058C263.599 265.574 263.325 265.618 263.149 266.19C262.753 267.462 261.976 267.872 260.817 267.422C260.773 267.406 260.734 267.38 260.702 267.346C260.67 267.313 260.646 267.273 260.632 267.228C260.617 267.183 260.613 267.135 260.618 267.087C260.623 267.04 260.638 266.994 260.663 266.953C261.943 264.743 263.461 262.679 265.189 260.798C265.37 260.602 265.596 260.487 265.812 260.483C267.8 260.417 265.335 263.373 265.027 263.894C264.902 264.105 264.909 264.355 265.042 264.517L269.135 269.557Z"
            fill="#4F687D" />
        <path
            d="M256.856 273.334L258.323 273.701C261.816 275.803 265.021 278.35 267.859 281.278C270.226 285.758 271.572 290.467 271.9 295.406C271.919 295.681 271.834 295.954 271.664 296.17C271.493 296.387 271.248 296.533 270.976 296.58C269.548 296.825 268.186 296.714 266.89 296.249C266.788 296.212 266.698 296.144 266.634 296.055C266.57 295.966 266.534 295.86 266.531 295.751C265.966 281.799 253.43 274.471 240.352 279.202C236.605 280.548 233.699 282.919 231.63 286.318C231.495 286.542 231.303 286.694 231.102 286.736C229.473 287.088 230.09 281.506 230.236 280.361C230.265 280.124 230.371 279.901 230.537 279.731C233.671 276.538 237.263 274.229 241.312 272.806C246.658 271.52 251.838 271.696 256.856 273.334Z"
            fill="#73A837" />
        <path
            d="M269.172 277.031L295.916 277.244L295.945 279.782V283.083L295.96 285.173C295.395 288.041 296.818 287.829 299.018 287.858C300.94 287.878 302.86 287.851 304.777 287.777C304.975 287.773 305.168 287.634 305.275 287.418L305.789 286.384L305.605 292.435C298.41 287.924 290.319 291.958 288.735 300.137H264.037C267.594 285.54 254.949 274.86 240.931 279.599L240.352 279.202C253.43 274.471 265.966 281.799 266.531 295.751C266.534 295.86 266.57 295.966 266.634 296.055C266.698 296.144 266.788 296.212 266.89 296.249C268.186 296.714 269.548 296.825 270.976 296.58C271.248 296.533 271.493 296.387 271.664 296.17C271.834 295.954 271.919 295.681 271.9 295.406C271.572 290.467 270.226 285.758 267.859 281.278C269.465 281.337 269.223 278.33 269.172 277.031ZM283.446 279.811H281.795C280.715 279.65 279.705 279.811 278.766 280.295C278.531 280.413 278.378 280.616 278.37 280.824L278.157 285.1V286.934L278.135 290.521C278.13 291.617 278.683 292.167 279.793 292.171L289.827 292.2C290.81 292.206 291.302 291.721 291.302 290.748V285.283C291.405 282.987 292.101 278.894 288.03 279.811C287.405 279.533 286.793 279.533 286.197 279.811H283.446Z"
            fill="#9CCC65" />
        <path
            d="M305.789 277.581L305.796 279.841L295.945 279.782L295.916 277.244C299.21 277.019 302.518 277.132 305.789 277.581ZM264.037 300.137C260.179 309.357 251.091 314.477 241.445 310.377C227.478 304.436 228.608 286.677 240.931 279.599C254.949 274.86 267.595 285.54 264.037 300.137ZM257.846 295.12C257.846 289.659 253.419 285.232 247.958 285.232C242.497 285.232 238.071 289.659 238.071 295.12C238.071 297.742 239.112 300.257 240.967 302.112C242.821 303.966 245.336 305.008 247.958 305.008C253.419 305.008 257.846 300.581 257.846 295.12Z"
            fill="#4F687D" />
        <path
            d="M305.796 279.841L305.847 280.332C305.195 282.276 297.94 281.638 295.945 281.799V279.782L305.796 279.841Z"
            fill="#2E3D4E" />
        <path
            d="M305.847 280.332L305.789 286.384L305.275 287.418C305.167 287.634 304.974 287.773 304.776 287.777C302.86 287.851 300.94 287.878 299.018 287.858C296.818 287.829 295.395 288.041 295.96 285.173L304.564 285.078C304.813 285.074 305.027 284.958 305.121 284.777C305.776 283.491 305.145 282.993 303.229 283.281C302.09 283.452 299.662 283.386 295.945 283.083V281.799C297.94 281.638 305.195 282.276 305.847 280.332Z"
            fill="#4F687D" />
        <path
            d="M295.945 283.083C299.662 283.386 302.09 283.452 303.229 283.281C305.145 282.993 305.776 283.491 305.121 284.777C305.027 284.958 304.813 285.074 304.564 285.078L295.959 285.173L295.945 283.083Z"
            fill="#2E3D4E" />
        <path
            d="M305.605 292.435C310.579 296.477 311.708 303.797 307.153 308.448C299.869 315.893 288.412 310.084 288.734 300.137C290.319 291.958 298.41 287.924 305.605 292.435ZM305.598 301.171C305.598 299.533 304.947 297.962 303.789 296.804C302.631 295.646 301.06 294.995 299.422 294.995C297.784 294.995 296.213 295.646 295.055 296.804C293.896 297.962 293.246 299.533 293.246 301.171C293.246 302.809 293.896 304.38 295.055 305.539C296.213 306.697 297.784 307.348 299.422 307.348C301.06 307.348 302.631 306.697 303.789 305.539C304.947 304.38 305.598 302.809 305.598 301.171ZM286.197 279.811L286.006 284.689C285.994 284.909 285.84 285.083 285.654 285.085H283.842C283.635 285.085 283.468 284.908 283.468 284.689L283.446 279.811H286.197Z"
            fill="#4F687D" />
        <path
            d="M288.03 279.811C287.747 281.441 287.727 283.105 287.972 284.741C288.006 284.968 288.185 285.137 288.397 285.144L291.302 285.283V286.567L291.111 286.728C290.988 286.832 290.832 286.89 290.671 286.89L278.157 286.934V285.1L281.289 284.975C281.388 284.972 281.481 284.932 281.551 284.863C281.62 284.793 281.661 284.699 281.663 284.601L281.795 279.811H283.446L283.468 284.689C283.468 284.908 283.635 285.085 283.842 285.085H285.654C285.84 285.083 285.994 284.909 286.006 284.689L286.197 279.811C286.793 279.533 287.405 279.533 288.03 279.811Z"
            fill="#2E3D4E" />
        <path
            d="M281.795 279.811L281.663 284.601C281.661 284.699 281.62 284.793 281.551 284.863C281.481 284.932 281.388 284.972 281.289 284.975L278.157 285.1L278.37 280.824C278.378 280.616 278.531 280.413 278.766 280.295C279.705 279.811 280.715 279.65 281.795 279.811ZM288.03 279.811C292.101 278.894 291.405 282.987 291.302 285.283L288.397 285.144C288.185 285.137 288.006 284.968 287.972 284.741C287.727 283.097 287.747 281.454 288.03 279.811Z"
            fill="#4F687D" />
        <path
            d="M257.846 295.12C257.846 300.581 253.419 305.008 247.958 305.008C242.497 305.008 238.07 300.581 238.07 295.12C238.07 292.497 239.112 289.982 240.966 288.128C242.821 286.274 245.336 285.232 247.958 285.232C253.419 285.232 257.846 289.659 257.846 295.12ZM252.132 295.112C252.132 294.004 251.691 292.94 250.907 292.156C250.123 291.372 249.06 290.931 247.951 290.931C246.842 290.931 245.778 291.372 244.994 292.156C244.21 292.94 243.77 294.004 243.77 295.112C243.77 296.221 244.21 297.285 244.994 298.069C245.778 298.853 246.842 299.294 247.951 299.294C249.06 299.294 250.123 298.853 250.907 298.069C251.691 297.285 252.132 296.221 252.132 295.112Z"
            fill="#E2F0FA" />
        <path
            d="M291.302 286.567V290.748C291.302 291.721 290.811 292.206 289.828 292.2L279.793 292.171C278.683 292.167 278.13 291.617 278.135 290.521L278.157 286.934L290.671 286.89C290.832 286.89 290.988 286.832 291.111 286.728L291.302 286.567Z"
            fill="#4F687D" />
        <path
            d="M305.598 301.171C305.598 302.809 304.947 304.38 303.789 305.539C302.631 306.697 301.06 307.348 299.422 307.348C297.784 307.348 296.213 306.697 295.055 305.539C293.896 304.38 293.246 302.809 293.246 301.171C293.246 299.533 293.896 297.962 295.055 296.804C296.213 295.646 297.784 294.995 299.422 294.995C301.06 294.995 302.631 295.646 303.789 296.804C304.947 297.962 305.598 299.533 305.598 301.171ZM301.982 301.164C301.982 300.481 301.711 299.826 301.228 299.343C300.745 298.861 300.09 298.589 299.407 298.589C298.724 298.589 298.069 298.861 297.587 299.343C297.104 299.826 296.833 300.481 296.833 301.164C296.833 301.847 297.104 302.502 297.587 302.985C298.069 303.467 298.724 303.739 299.407 303.739C300.09 303.739 300.745 303.467 301.228 302.985C301.711 302.502 301.982 301.847 301.982 301.164Z"
            fill="#E2F0FA" />
        <path
            d="M243.77 295.112C243.77 295.662 243.878 296.205 244.088 296.713C244.298 297.22 244.606 297.681 244.994 298.069C245.382 298.457 245.843 298.765 246.351 298.975C246.858 299.185 247.402 299.294 247.951 299.294C248.5 299.294 249.043 299.185 249.551 298.975C250.058 298.765 250.519 298.457 250.907 298.069C251.295 297.681 251.603 297.22 251.813 296.713C252.024 296.205 252.132 295.662 252.132 295.112C252.132 294.004 251.691 292.94 250.907 292.156C250.123 291.372 249.059 290.931 247.951 290.931C246.842 290.931 245.778 291.372 244.994 292.156C244.21 292.94 243.77 294.004 243.77 295.112Z"
            fill="#4F687D" />
        <path
            d="M296.833 301.164C296.833 301.847 297.104 302.502 297.587 302.985C298.069 303.467 298.724 303.739 299.407 303.739C300.09 303.739 300.745 303.467 301.228 302.985C301.711 302.502 301.982 301.847 301.982 301.164C301.982 300.481 301.711 299.826 301.228 299.343C300.745 298.861 300.09 298.589 299.407 298.589C298.724 298.589 298.069 298.861 297.587 299.343C297.104 299.826 296.833 300.481 296.833 301.164Z"
            fill="#4F687D" />
    </g>
    <defs>
        <clipPath id="clip0_0_1">
            <rect width="80" height="80" fill="white" transform="translate(230 238)" />
        </clipPath>
    </defs>
</svg>